<svg xmlns:xlink="http://www.w3.org/1999/xlink" xmlns="http://www.w3.org/2000/svg" viewBox="0 0 784 784" width="784"  height="784" >
  <path fill="#F7DDD2" fill-rule="evenodd" clip-rule="evenodd" d="M 392 774 c -62 0 -117 -37 -141 -94 c -3 -7 2 -12 7 -13 l 21 -56 l 0 -1 l 1 0 l 178 -11 l 1 0 l 64 67 c 6 0 13 5 10 13 c -24 57 -79 94 -141 94 z"></path>
  <path fill="#FCB324" fill-rule="evenodd" clip-rule="evenodd" d="M 220 705 c -8 0 -12 -6 -13 -6 c -14 -7 -31 -23 -44 -39 c -4 21 -21 22 -30 15 c -32 -23 -51 -61 -61 -89 c -11 16 -31 9 -34 -5 c -23 -86 -17 -150 -10 -187 c -18 6 -28 -6 -27 -18 c 6 -97 57 -152 85 -174 c -21 -44 -20 -124 10 -164 c 43 -56 107 -15 160 18 c 75 -39 197 -39 273 0 c 53 -33 118 -74 160 -18 c 31 40 31 121 10 164 c 28 23 79 77 85 174 c 0 13 -12 25 -28 18 c 8 37 12 100 -10 186 c -4 15 -24 20 -34 5 c -11 28 -30 65 -61 89 c -9 7 -27 6 -30 -16 c -10 11 -47 53 -64 44 l -168 -88 l -164 90 c -2 0 -4 1 -5 1 z"></path>
  <path fill="#4D4D4D" fill-rule="evenodd" clip-rule="evenodd" d="M 398 620 l -9 -5 l -10 5 l 0 -55 c 0 -12 18 -12 18 0 l 0 55 z M 558 583 c -10 0 -13 -14 -3 -18 c 106 -39 160 -154 122 -260 c -4 -11 13 -18 17 -6 c 20 56 17 116 -7 169 c -25 54 -70 95 -125 115 c -1 0 -2 0 -3 0 z"></path>
  <path fill="#4D4D4D" fill-rule="evenodd" clip-rule="evenodd" d="M 562 516 c -10 0 -13 -14 -3 -18 c 65 -24 98 -95 74 -159 c -4 -11 13 -17 17 -6 c 27 73 -10 154 -85 183 c -1 0 -2 1 -3 1 z M 226 583 c -1 0 -2 0 -3 0 c -116 -43 -175 -169 -133 -284 c 4 -11 22 -5 17 6 c -39 106 16 223 122 261 c 10 3 7 17 -3 17 z"></path>
  <path fill="#4D4D4D" fill-rule="evenodd" clip-rule="evenodd" d="M 222 516 c -1 0 -2 0 -3 0 c -74 -28 -112 -109 -85 -183 c 4 -11 22 -6 17 6 c -23 65 10 136 74 159 c 10 4 7 18 -3 18 z M 222 172 c -10 0 -13 -14 -4 -18 c 116 -46 235 -46 352 0 c 11 5 5 22 -7 17 c -193 -76 -327 0 -342 0 z M 475 217 c -9 0 -71 -36 -158 -1 c -11 5 -18 -12 -7 -17 c 56 -22 112 -22 169 0 c 9 4 6 18 -4 18 z M 392 575 c -14 0 -28 -6 -37 -15 l -39 -39 c -34 -34 -10 -91 38 -91 l 78 0 c 49 0 71 58 38 91 l -39 39 c -10 10 -24 15 -38 15 z"></path>
  <line x1="207" x2="207" y1="699" y2="699" fill-rule="evenodd" clip-rule="evenodd"></line>
  <path fill="#E6E6E6" fill-rule="evenodd" clip-rule="evenodd" d="M 503 384 c -63 0 -73 -72 -4 -112 c 32 -18 80 -24 98 8 c 16 27 -3 66 -42 89 c -17 10 -35 15 -52 15 z"></path>
  <path fill="#333333" fill-rule="evenodd" clip-rule="evenodd" d="M 473 293 c 7 -8 16 -15 27 -21 c 6 -4 13 -6 20 -9 c 15 5 25 18 25 35 c 0 20 -16 36 -36 36 c -20 0 -36 -17 -36 -36 c 0 -2 0 -3 0 -5 z"></path>
  <circle cx="518" cy="286" r="8" fill="#FFFFFF" fill-rule="evenodd" clip-rule="evenodd"></circle>
  <path fill="#E6E6E6" fill-rule="evenodd" clip-rule="evenodd" d="M 281 384 c 64 0 73 -72 4 -112 c -32 -18 -80 -24 -98 8 c -16 28 3 67 42 89 c 17 10 35 15 52 15 z"></path>
  <path fill="#333333" fill-rule="evenodd" clip-rule="evenodd" d="M 311 293 c -7 -8 -16 -15 -27 -21 c -6 -4 -13 -6 -21 -9 c -15 5 -25 18 -25 35 c 0 20 17 36 36 36 c 20 0 37 -17 37 -36 c 0 -2 0 -3 0 -5 z"></path>
  <circle cx="266" cy="286" r="8" fill="#FFFFFF" fill-rule="evenodd" clip-rule="evenodd"></circle>
</svg>