<svg xmlns:xlink="http://www.w3.org/1999/xlink" xmlns="http://www.w3.org/2000/svg" viewBox="0 0 784 784" width="784"  height="784" >
  <path fill="#3D4652" d="M 46 72 c 0 36 -5 54 -16 54 s -16 -18 -16 -54 s 5 -54 16 -54 s 16 18 16 54 z M 14 254 c 0 -32 5 -47 15 -47 s 15 16 15 47 v 465 c 0 32 -5 47 -15 47 s -15 -16 -15 -47 v -465 z"></path>
  <path fill="#3D4652" d="M 268 391 c 0 -58 -14 -87 -42 -87 h -56 c -28 0 -42 29 -42 87 v 327 c 0 32 -5 47 -15 47 s -15 -16 -15 -47 v -327 c 0 -120 24 -180 73 -180 h 54 c 49 0 73 60 73 180 v 327 c 0 32 -5 47 -15 47 s -15 -16 -15 -47 v -327 z"></path>
  <path fill="#3D4652" d="M 392 304 v 414 c 0 32 -5 47 -15 47 c -10 0 -15 -16 -15 -47 v -414 h -12 c -9 0 -14 -15 -14 -44 s 5 -44 14 -44 h 12 v -104 c 0 -32 5 -47 15 -47 c 10 0 15 16 15 47 v 104 h 49 c 9 0 14 15 14 44 s -5 44 -14 44 h -49 z"></path>
  <path fill="#3D4652" d="M 630 206 c 4 0 7 3 9 9 c 2 6 4 15 6 27 l 50 374 l 47 -376 c 1 -10 3 -18 5 -24 c 2 -6 5 -10 9 -10 c 5 0 8 4 11 12 c 3 8 4 20 4 34 c 0 8 -1 18 -2 28 l -60 448 c -2 13 -4 22 -6 28 c -2 6 -5 9 -9 9 c -7 0 -11 -12 -15 -36 l -51 -369 l -50 369 c -2 13 -4 22 -6 28 c -2 6 -5 8 -9 8 c -4 0 -7 -3 -9 -9 s -4 -15 -6 -28 l -60 -448 c -1 -6 -1 -11 -1 -15 s 0 -8 0 -14 c 0 -14 1 -26 4 -34 c 3 -8 6 -12 11 -12 c 4 0 7 3 9 9 s 4 14 5 25 l 47 375 l 50 -373 c 1 -12 3 -21 6 -27 c 2 -6 5 -9 9 -9 z"></path>
</svg>