<svg xmlns:xlink="http://www.w3.org/1999/xlink" xmlns="http://www.w3.org/2000/svg" viewBox="0 0 784 784" width="784"  height="784" >
  <path fill="#000" d="M 101 86 c -30 -4 -71 3 -101 3 v 673 h 43 v -509 c 0 0 38 -6 52 1 c 13 7 18 42 18 115 c 1 84 0 128 0 393 h 43 c 0 0 1 -303 0 -409 c 0 -188 -15 -263 -55 -267 z"></path>
  <path fill="#000" d="M 300 83 c -42 0 -77 153 -77 340 c 0 188 35 340 77 340 c 43 0 77 -152 77 -340 c 0 -187 -34 -340 -77 -340 z M 300 601 c -22 0 -40 -80 -40 -178 c 0 -99 18 -179 40 -179 c 22 0 41 80 41 179 c 0 99 -19 178 -41 178 z"></path>
  <path fill="#000" d="M 784 423 c 0 -187 -35 -340 -77 -340 c -43 0 -77 153 -77 340 c 0 110 11 204 29 267 c 12 43 30 73 53 73 c 12 0 41 -13 62 -116 l -17 -102 c -8 28 -26 69 -41 69 c -19 0 -30 -16 -38 -50 c -5 -20 -9 -51 -11 -89 h 116 c 1 -17 1 -34 1 -52 z M 668 361 c 4 -79 17 -138 39 -138 c 22 0 34 63 38 138 h -77 z"></path>
  <path fill="#000" d="M 523 21 h -40 v 189 h -41 v 165 h 41 v 196 h 40 v -196 h 42 v -165 h -42 v -189 z"></path>
</svg>