<svg xmlns:xlink="http://www.w3.org/1999/xlink" xmlns="http://www.w3.org/2000/svg" viewBox="0 0 784 784" width="784"  height="784" >
  <path fill="#E8EAE9" d="M 671 479 h -263 v -59 h -33 v 59 h -262 c -10 0 -16 8 -16 16 v 77 h 33 v -60 h 246 v 60 h 33 v -60 h 247 v 60 h 33 v -77 c 0 -10 -7 -16 -16 -16 z"></path>
  <path fill="#FFD15C" d="M 784 746 v -149 c 0 -21 -16 -38 -38 -38 h -149 c -21 0 -38 16 -38 38 v 149 c 0 21 16 38 38 38 h 149 c 21 0 38 -16 38 -38 z"></path>
  <path fill="#F7B64C" d="M 598 598 h 149 v 149 h -149 z"></path>
  <path fill="#F3705A" d="M 224 746 v -149 c 0 -21 -16 -38 -38 -38 h -148 c -21 0 -38 16 -38 38 v 149 c 0 22 16 38 38 38 h 149 c 21 0 38 -16 38 -38 z"></path>
  <path fill="#F05540" d="M 38 598 h 149 v 149 h -149 z"></path>
  <path fill="#8AD7F8" d="M 505 746 v -149 c 0 -21 -16 -38 -38 -38 h -149 c -21 0 -38 16 -38 38 v 149 c 0 21 16 38 38 38 h 149 c 20 0 38 -16 38 -38 z"></path>
  <path fill="#55C0EB" d="M 317 598 h 149 v 149 h -149 z"></path>
  <path fill="#415A6B" d="M 603 243 v -65 l -57 -13 c -3 -11 -7 -21 -13 -31 l 31 -51 l -46 -46 l -51 31 c -10 -5 -20 -10 -29 -13 l -13 -55 h -65 l -13 57 c -10 3 -21 7 -29 11 l -51 -31 l -46 46 l 31 51 c -5 10 -10 20 -13 31 l -57 15 v 65 l 57 13 c 3 11 7 21 13 29 l -31 51 l 46 46 l 51 -31 c 10 5 20 10 31 13 l 13 57 h 65 l 15 -57 c 10 -3 21 -8 31 -13 l 51 31 l 46 -46 l -31 -51 c 5 -10 10 -20 13 -29 l 52 -15 z M 392 259 c -28 0 -49 -21 -49 -49 c 0 -26 21 -49 49 -49 c 26 0 49 23 49 49 c 0 28 -21 49 -49 49 z"></path>
  <path fill="#344A5E" d="M 392 118 c -52 0 -93 42 -93 93 c 0 52 42 93 93 93 s 93 -42 93 -93 s -42 -93 -93 -93 z M 392 260 c -28 0 -49 -21 -49 -49 c 0 -26 21 -49 49 -49 c 26 0 49 23 49 49 c 0 28 -21 49 -49 49 z"></path>
</svg>